<?xml version="1.0" encoding="UTF-8"?>
<!DOCTYPE svg PUBLIC "-//W3C//DTD SVG 1.1//EN" "http://www.w3.org/Graphics/SVG/1.1/DTD/svg11.dtd">
<!-- Creator: CorelDRAW 2020 (64-Bit) -->
<svg xmlns="http://www.w3.org/2000/svg" xml:space="preserve" width="885px" height="884px" version="1.1" style="shape-rendering:geometricPrecision; text-rendering:geometricPrecision; image-rendering:optimizeQuality; fill-rule:evenodd; clip-rule:evenodd"
viewBox="0 0 77.11 77"
 xmlns:xlink="http://www.w3.org/1999/xlink"
 xmlns:xodm="http://www.corel.com/coreldraw/odm/2003">
 <defs>
  <style type="text/css">
   <![CDATA[
    .fil0 {fill:#FEFEFE}
   ]]>
  </style>
 </defs>
 <g id="Слой_x0020_1">
  <metadata id="CorelCorpID_0Corel-Layer"/>
  <path class="fil0" d="M73.17 69.25c-1.26,5.64 -9.98,3.7 -8.57,-2.07 1.34,-5.45 9.85,-3.69 8.57,2.07zm-9.11 4.71c-6.58,1.22 -7.83,-8.43 -1.68,-9.26 -0.77,2.48 -1.61,4.44 0.31,7.51 0.3,0.48 0.38,0.58 0.74,0.93 0.24,0.23 0.55,0.39 0.63,0.82zm-8.07 -1.58c-2.57,-0.34 -4.81,-3.33 -3.8,-6.46 0.42,-1.3 1.38,-2.35 2.42,-2.9 0.62,-0.32 1.3,-0.52 2.07,-0.56 0.63,-0.04 1.68,0 2.15,0.46 -3.5,2.95 -4.01,5.17 -2.84,9.46zm-6.87 -3.44c-4.36,-1.23 -4.8,-8.68 0.66,-10.08 1.33,-0.34 3.09,-0.13 4.15,0.65 0.04,0.03 0.16,0.13 0.19,0.16 0.24,0.22 0.1,0.05 0.28,0.3 -1.74,0.45 -3.3,1.93 -4.06,3.11 -1.19,1.85 -1.48,3.36 -1.22,5.86zm-16.96 0.4c-3.71,2.82 -8.44,0.3 -9.59,-3.08 -1.44,-4.28 1.93,-8.51 5.96,-8.29 -1.32,3.81 -0.94,6.31 1.38,9.44 0.83,1.12 1.73,1.36 2.25,1.93zm-10.86 0.75c-2.7,0.44 -4.25,0.43 -6.23,-1.15 -1.31,-1.05 -2.58,-2.9 -2.47,-5.52 0.24,-5.43 6.46,-7.44 9.25,-5.63 -1.12,1.28 -2.37,3.27 -2.53,5.81 -0.22,3.46 1.05,4.6 1.98,6.49zm21.78 -3.75c-5.42,-1.31 -5.75,-9.18 -0.17,-10.87 1.73,-0.52 3.97,-0.09 4.94,0.95 -3.62,1.63 -5.53,4.74 -4.77,9.92zm-4.46 0.97c-10.02,1.98 -10.42,-12.4 -1.09,-11.64 -0.11,0.51 -0.93,1.69 -1.23,2.67 -1.64,5.3 1.87,7.98 2.32,8.97zm-19.76 -13.09c-4.55,0.57 -7.58,2.77 -8.8,6.83 -0.85,2.83 0,3.86 -0.49,4.58 -1.28,-2.02 -2.78,-2.69 -4.76,-7.39 -3.41,-8.09 -1.96,-16.9 3.15,-23.74 0.92,-1.22 1.93,-2.09 2.91,-3.19 0.32,0.31 0.05,-0.07 0.23,0.34 0.07,0.16 0.1,0.35 0.14,0.53 0.06,0.39 0.12,0.79 0.2,1.15 1.65,7.12 6.86,8.81 8,9.8 -0.68,1.46 -1.85,2.29 -2.04,5.32 -0.18,2.69 0.58,3.88 1.46,5.77zm-4.79 -23.62c0.52,-0.32 3.74,-4.3 8.28,-1.55 4.22,2.56 3.97,8.85 -0.53,10.99 -1.37,0.65 -2.59,-0.21 -3.9,-1.4 -1.71,-1.55 -3.99,-4.32 -3.85,-8.04zm9.42 -4.36c4.05,-2.5 8.32,-0.14 9.59,3.24 1.66,4.43 -1.67,8.3 -5.53,8.7 0.78,-2.92 1.25,-4.47 -0.02,-7.49 -0.94,-2.21 -2.33,-3.23 -4.04,-4.45zm27.36 -1.05c7.69,-0.27 10.5,8.7 5.08,13.03 -1.05,0.84 -4.36,2.38 -6.03,1.25 1.3,-1.68 3.05,-2.69 3.39,-6.68 0.14,-1.54 -0.07,-2.96 -0.57,-4.33 -0.38,-1.04 -1.31,-2.65 -1.87,-3.27zm-8.23 -0.27c4.45,-0.43 8.09,3.15 7.75,7.57 -0.33,4.34 -4.1,6.96 -8.73,6.26 0.25,-0.58 -0.01,-0.07 0.23,-0.41 0.09,-0.13 0.23,-0.29 0.33,-0.39 1.53,-1.5 2.48,-3.52 2.67,-5.79 0.35,-4.06 -1.3,-5.43 -2.25,-7.24zm-9.1 -0.09c1.77,-1 4.56,0.17 5.77,1.09 2.37,1.81 3.46,5.15 2.12,8.09 -1.19,2.6 -4.31,4.7 -7.29,3.91 2.76,-3.17 3.11,-8.19 0.47,-11.79 -0.42,-0.57 -0.75,-0.74 -1.07,-1.3zm27.74 10.57c1.09,-3.63 0.04,-7.39 -2.44,-10.05 -0.47,-0.51 -0.82,-0.6 -1.28,-1.18 1.59,-1.15 5.27,0.37 6.31,1.15 5.6,4.16 3.11,13.35 -4.4,13.63 0.55,-1.14 1.15,-1.39 1.81,-3.55zm-2.2 -14.47c0.45,-1.29 3.41,-2.66 5.43,-2.75 2.59,-0.11 4.78,1.08 5.98,2.34 3.07,3.25 2.78,8.94 -0.59,11.41 -0.24,-3.76 -1.12,-5.94 -3.04,-7.94 -1.92,-2 -4.87,-3.07 -7.78,-3.06zm-0.96 -3.43c0.21,-4.28 4.57,-8.11 9.47,-7.19 4.82,0.91 7.53,5.68 6.37,9.83 -1.31,-1.23 -2.42,-3.78 -6.88,-4.68 -5.22,-1.05 -7.79,1.62 -8.96,2.04zm-34.57 -1.2c-2.44,0.23 -4.43,-1.89 -4.38,-4.27 0.05,-2.42 1.94,-4.08 4.4,-4.12 -0.78,2.28 -2.28,4.5 -0.02,8.39zm7.84 0.55c-2.9,1.06 -5.54,-1.51 -5.96,-3.68 -0.61,-3.11 1.53,-5.37 4.02,-5.78 -0.57,2.05 -0.91,3.33 -0.3,5.56 0.66,2.38 2.03,3.24 2.24,3.9zm23.85 -0.71c-2.92,-3.69 -1.54,-8.38 1.35,-10.55 2.42,-1.81 5.95,-2.05 8.62,-0.24 0.36,0.24 0.7,0.56 0.99,0.83 0.18,0.18 0.33,0.31 0.49,0.51 0.45,0.57 0.13,0.05 0.36,0.57 -3.39,-0.11 -5.96,0.79 -7.94,2.52 -0.95,0.84 -1.61,1.52 -2.39,2.77 -0.82,1.29 -0.92,2.57 -1.48,3.59zm-39.01 -3.83c-3.91,-0.92 -2.59,-8.79 3.24,-6.33l-0.17 0.22c-0.7,0.8 -1.16,0.72 -2.13,2.39 -0.64,1.1 -0.92,2.26 -0.94,3.72zm21.83 3.73c-2.27,0.72 -5.84,-1.3 -6.25,-4.75 -0.39,-3.37 2.1,-5.87 5.11,-6.12 -0.79,2.06 -1.5,3.35 -1.04,6.07 0.23,1.32 0.84,2.84 1.63,3.84 0.15,0.2 0.65,0.68 0.55,0.96zm-27.04 -6.76c-1.57,-0.43 -2.81,-2.27 -1.82,-4.18 0.59,-1.14 2.73,-2.2 4.08,-1.06 -1.22,1.53 -2.21,2.25 -2.26,5.24zm34.21 6.58c-8.53,0.33 -8.78,-12.39 -0.05,-12.26 -0.97,1.96 -2.05,3 -2.06,6.1 -0.01,3.12 1.04,4.19 2.11,6.16zm6.61 0.53c-5.54,-0.43 -8.32,-8.69 -2.66,-12.38 1.82,-1.19 3.35,-1.18 5.59,-0.84 -0.43,0.64 -2.62,1.84 -3.69,5.57 -1,3.49 0,5.19 0.76,7.65zm-35.78 -13.79c-0.91,-1.39 -3.3,-2.39 -5.68,-1.79 -4.44,1.11 -5.67,6.38 -3.12,9.42 2.36,2.79 4.14,1.53 4.95,2.54 2.52,3.12 3.04,1.89 4.8,2.85 0.35,0.2 2.58,4.35 7.45,3.58 2.19,-0.34 0.87,-0.57 2.88,0.23 4.08,1.63 6.56,-0.78 7.51,-0.69 1.21,0.1 2.31,0.8 5.04,-0.07 2,-0.64 0.81,-0.58 2.92,-0.08 3.81,0.9 4.13,-0.85 6.12,0.03 3.61,1.6 4.77,0.07 6.04,1.29 0.79,0.75 0.29,1.83 -0.57,2.3 -0.82,0.46 -2.06,-0.02 -3.36,0.04 -1.03,0.04 -2.83,0.61 -3.31,0.58 -0.99,-0.05 -3.02,-1.46 -6.51,-0.66 -1.95,0.45 -0.94,0.64 -2.78,-0.04 -0.96,-0.35 -2.07,-0.53 -3.2,-0.53 -4.34,0 -3.24,1.64 -6.03,0.94 -2.32,-0.59 -4.54,-0.18 -6.47,0.76 -1.16,0.57 -1.4,0.96 -2.23,1.61 -0.68,0.54 -2.14,0.29 -3.16,0.49 -2.58,0.52 -3.4,1.46 -4.88,2.79 -0.67,0.6 -0.47,0.21 -1.5,0.2 -1.66,-0.03 -2.4,1.27 -3.32,2.12 -2.37,2.19 -4.43,5.4 -5.9,9.23 -4.6,11.99 0.35,25.14 10.48,31.72 0.66,0.43 1.64,1.13 2.57,1.23 2.08,0.22 2.02,0.43 3.31,0.57 4.08,0.45 4.94,-1.43 6.28,-0.83 4.04,1.82 8.44,1.02 11.02,-1.97 5.91,0.13 4.96,-1.72 7,-1.24 2.49,0.59 1.59,-0.32 3.17,1 3.12,2.6 4.34,1.33 5.63,2.68 1.51,1.58 3.4,2.58 5.82,2.54 2.17,-0.04 1.44,0.28 3.13,0.99 2.29,0.95 4.95,0.66 6.87,-0.52 1.39,-0.86 3.5,0.25 6.41,-1.9 5.97,-4.42 1.48,-14.93 -6.37,-12.87 -2.39,0.62 -0.63,0.85 -3.22,0.6 -1.04,-0.09 -1.08,0.18 -1.76,-0.38 -2.09,-1.73 -3.29,-1.22 -4.14,-2.02 -0.25,-0.23 -0.3,-0.4 -0.52,-0.64 -0.2,-0.22 -0.32,-0.31 -0.5,-0.49 -1.15,-1.15 -2.09,-1.81 -3.93,-2.24 -1.97,-0.45 -0.96,0.25 -2.21,-0.94 -1.62,-1.54 -3.46,-2.82 -6.56,-2.73 -3.59,0.1 -2.79,1.48 -4.82,0.81 -2.92,-0.96 -6.13,-0.2 -8.19,1.47 -1.21,0.99 -1.58,0.29 -3.44,0.44 -1.43,0.12 -2.21,0.62 -3.41,0.82 -0.3,-1.05 -1.64,-1.64 -2.37,-2.46 -1.78,-2.01 -2.22,-4.83 -0.92,-7.27 1.17,-2.22 0.43,0.05 1.38,-2.79 0.27,-0.8 0.73,-0.52 1.83,-1.32 0.63,-0.46 0.83,-0.91 1.79,-0.9 1.95,0.02 2.77,0.06 4.49,-0.66 1.63,-0.67 2.58,1.24 6.65,0.35 1.09,-0.24 0.84,-0.43 1.81,0.05 2.33,1.15 4.32,1.21 6.79,0.71 1.1,-0.22 0.98,0.06 1.89,0.42 4.71,1.85 7.91,-0.39 8.67,-0.44 0.78,-0.05 2.21,0.69 4.91,0.18 5.48,-1.04 6.84,-4.92 7.51,-5.62 0.41,-0.43 7.42,-2.77 6.75,-11.3 -0.09,-1.17 0.91,-2.49 1.25,-3.81 1.08,-4.28 -0.58,-8.98 -3.78,-11.31 -0.61,-0.45 -0.91,-0.63 -1.6,-1.06 -1.28,-0.78 -1.22,-4.42 -6.33,-6.64 -3.5,-1.51 -6.21,-0.4 -6.88,-0.48 -0.42,-0.04 -1.17,-0.58 -1.68,-0.77 -4.75,-1.86 -7.67,0.49 -8.6,0.43 -0.47,-0.03 -1.45,-0.38 -2.2,-0.46 -3.73,-0.35 -5.6,1.47 -6.22,1.65 -0.76,0.2 -2.85,-0.31 -4.73,0.24 -2.03,0.61 -2.78,1.69 -3.38,1.82 -0.93,0.18 -2.39,-0.33 -4.57,0.73 -1.08,0.52 -0.6,0.31 -1.83,0.02 -0.85,-0.2 -1.51,-0.19 -2.37,-0.16 -1.8,-2.59 -4.59,-2.35 -6.57,-2.39z"/>
 </g>
</svg>
