<?xml version="1.0" encoding="UTF-8"?>
<!DOCTYPE svg PUBLIC "-//W3C//DTD SVG 1.1//EN" "http://www.w3.org/Graphics/SVG/1.1/DTD/svg11.dtd">
<!-- Creator: CorelDRAW 2020 (64-Bit) -->
<svg xmlns="http://www.w3.org/2000/svg" xml:space="preserve" width="799px" height="733px" version="1.1" style="shape-rendering:geometricPrecision; text-rendering:geometricPrecision; image-rendering:optimizeQuality; fill-rule:evenodd; clip-rule:evenodd"
viewBox="0 0 39.61 36.32"
 xmlns:xlink="http://www.w3.org/1999/xlink"
 xmlns:xodm="http://www.corel.com/coreldraw/odm/2003">
 <defs>
  <style type="text/css">
   <![CDATA[
    .fil0 {fill:#FEFEFE;fill-rule:nonzero}
   ]]>
  </style>
 </defs>
 <g id="Слой_x0020_1">
  <metadata id="CorelCorpID_0Corel-Layer"/>
  <path class="fil0" d="M37.58 25.9c-1.01,1.8 -1.72,2.98 -2.64,4.04 -0.93,1.06 -2.03,1.96 -3.82,3.18 -3.47,2.37 -7.5,3.37 -11.5,3.18 -3.11,-0.15 -6.2,-1.02 -8.97,-2.54 -2.78,-1.52 -5.24,-3.68 -7.09,-6.39 -2.39,-3.51 -3.78,-7.93 -3.53,-13.09 0.02,-0.37 0.2,-2.14 0.6,-4.02 0.24,-1.09 0.56,-2.23 0.97,-3.2l0.02 -0.04c0.25,-0.46 0.51,-0.92 0.77,-1.37l0.03 -0.05c0.4,-0.51 0.86,-0.88 1.4,-1.02 0.53,-0.15 1.09,-0.08 1.67,0.24 0.39,0.22 0.66,0.48 0.86,0.78 0.19,0.29 0.3,0.6 0.36,0.92 0.13,0.63 -0.15,1.36 -0.53,2.39 -0.69,1.85 -1.79,4.79 -1.15,8.89 0.63,3.98 2.42,7.16 4.84,9.44 2.2,2.09 4.94,3.44 7.79,3.98 2.86,0.54 5.83,0.28 8.51,-0.85 2.75,-1.16 5.2,-3.24 6.93,-6.31 1.59,-2.84 1.97,-6.11 1.37,-9.11 -0.62,-3.07 -2.28,-5.85 -4.72,-7.6 -0.4,-0.28 -0.81,-0.54 -1.23,-0.78 -2.73,-1.53 -5.72,-1.92 -8.4,-1.43 -2.66,0.5 -4.99,1.87 -6.43,3.88 -0.17,0.24 -0.33,0.49 -0.48,0.76 -0.82,1.45 -1.39,2.78 -1.64,4.11 -0.25,1.3 -0.2,2.62 0.22,4.07 0.17,0.59 0.33,1.14 0.54,1.65 0.2,0.5 0.45,0.98 0.78,1.45 0.86,1.19 1.89,2.07 2.99,2.69 1.53,0.86 3.21,1.2 4.81,1.11 1.59,-0.09 3.09,-0.61 4.27,-1.46 0.72,-0.52 1.31,-1.16 1.73,-1.91l0.58 -1.02c0.69,-1.25 0.85,-2.72 0.57,-4.11 -0.18,-0.88 -0.54,-1.73 -1.04,-2.46 -0.5,-0.73 -1.15,-1.34 -1.92,-1.78 -1.05,-0.58 -2.34,-0.83 -3.79,-0.53 -0.9,0.18 -1.68,0.66 -2.27,1.3 -0.5,0.55 -0.85,1.2 -1,1.88 -0.14,0.65 -0.09,1.32 0.21,1.93 0.27,0.56 0.75,1.07 1.5,1.49 0.14,0.08 0.27,0.14 0.4,0.18 0.26,0.07 0.52,0.07 0.74,-0.03 0.24,-0.1 0.46,-0.3 0.65,-0.63 0.03,-0.05 0.05,-0.11 0.08,-0.16 -0.62,-0.43 -1.01,-0.88 -1.24,-1.32 -0.26,-0.51 -0.29,-1.01 -0.18,-1.46 0.11,-0.44 0.35,-0.81 0.65,-1.11 0.42,-0.41 0.98,-0.69 1.44,-0.74 0.71,-0.09 1.37,0.07 1.94,0.39 0.65,0.37 1.2,0.95 1.59,1.63 0.39,0.65 0.65,1.41 0.73,2.15 0.1,0.85 -0.01,1.71 -0.4,2.4l-0.09 0.15c-1.24,2.22 -1.48,2.65 -4.35,3.42 -1.56,0.42 -3.21,0.13 -4.65,-0.67 -0.85,-0.48 -1.62,-1.13 -2.25,-1.93 -0.63,-0.8 -1.11,-1.75 -1.4,-2.8 -0.52,-1.97 -0.32,-4.3 1.04,-6.74 1.13,-2.01 3.2,-3.36 5.46,-3.96 2.37,-0.64 4.97,-0.46 6.9,0.62 1.1,0.61 1.86,1.05 2.58,1.66 0.71,0.6 1.31,1.34 2.06,2.54 1.15,1.86 1.66,4.12 1.53,6.4 -0.11,1.83 -0.63,3.68 -1.57,5.34 -0.93,1.67 -2.28,3.15 -4.05,4.24 -2.14,1.33 -4.88,2.08 -8.2,1.89 -2.76,-0.17 -5.35,-1.33 -7.45,-3.09 -2.19,-1.83 -3.85,-4.32 -4.6,-6.99 -0.89,-3.19 -0.6,-6.65 0.63,-9.73 1.22,-3.07 3.39,-5.77 6.24,-7.45 3.25,-1.93 6.67,-2.61 9.91,-2.33 2.76,0.24 5.38,1.18 7.67,2.66 2.29,1.48 4.24,3.49 5.65,5.87 1.75,2.96 2.67,6.5 2.33,10.3 -0.09,1.09 -0.31,2.45 -0.69,3.82 -0.31,1.1 -0.72,2.21 -1.27,3.19zm-3.76 3.06c0.83,-0.96 1.5,-2.08 2.46,-3.79 0.49,-0.87 0.86,-1.86 1.14,-2.86 0.35,-1.26 0.55,-2.52 0.64,-3.55 0.31,-3.47 -0.53,-6.71 -2.13,-9.42 -1.29,-2.18 -3.07,-4.02 -5.17,-5.37 -2.09,-1.35 -4.48,-2.21 -6.99,-2.43 -2.96,-0.26 -6.07,0.37 -9.04,2.12 -2.56,1.52 -4.51,3.96 -5.62,6.73 -1.11,2.79 -1.38,5.91 -0.57,8.78 0.67,2.38 2.16,4.6 4.12,6.25 1.87,1.57 4.16,2.6 6.58,2.74 3,0.18 5.45,-0.48 7.34,-1.66 1.54,-0.95 2.72,-2.24 3.54,-3.7 0.82,-1.47 1.28,-3.09 1.38,-4.7 0.11,-1.99 -0.32,-3.94 -1.31,-5.54 -0.66,-1.06 -1.18,-1.7 -1.76,-2.2 -0.59,-0.5 -1.31,-0.9 -2.34,-1.48 -1.6,-0.9 -3.78,-1.03 -5.8,-0.49 -1.9,0.51 -3.63,1.62 -4.54,3.26 -1.16,2.06 -1.34,4.01 -0.9,5.63 0.23,0.85 0.62,1.61 1.13,2.26 0.51,0.64 1.13,1.17 1.81,1.55 1.11,0.62 2.37,0.85 3.54,0.53 2.26,-0.6 2.45,-0.94 3.44,-2.71l0.08 -0.14c0.23,-0.41 0.29,-0.95 0.23,-1.51 -0.07,-0.54 -0.25,-1.1 -0.53,-1.58 -0.27,-0.45 -0.63,-0.84 -1.04,-1.07 -0.31,-0.17 -0.67,-0.26 -1.05,-0.21 -0.16,0.01 -0.38,0.13 -0.57,0.31 -0.11,0.12 -0.21,0.26 -0.25,0.41 -0.03,0.13 -0.01,0.28 0.07,0.44 0.15,0.31 0.51,0.66 1.18,1.03l0.51 0.29 -0.16 0.56c-0.11,0.38 -0.25,0.71 -0.41,0.99 -0.35,0.64 -0.83,1.06 -1.36,1.28 -0.55,0.23 -1.14,0.25 -1.73,0.08 -0.25,-0.07 -0.49,-0.17 -0.72,-0.3 -1.03,-0.58 -1.71,-1.32 -2.11,-2.15 -0.45,-0.92 -0.53,-1.92 -0.32,-2.88 0.2,-0.93 0.68,-1.83 1.36,-2.56 0.79,-0.87 1.85,-1.52 3.06,-1.76 1.84,-0.38 3.47,-0.06 4.82,0.69 0.97,0.54 1.78,1.32 2.41,2.23 0.62,0.9 1.05,1.93 1.27,3.01 0.35,1.72 0.15,3.55 -0.73,5.12l-0.57 1.03c-0.53,0.94 -1.27,1.74 -2.16,2.38 -1.4,1.02 -3.18,1.63 -5.06,1.74 -1.86,0.11 -3.83,-0.29 -5.62,-1.29 -1.28,-0.72 -2.46,-1.75 -3.46,-3.12 -0.41,-0.57 -0.71,-1.16 -0.96,-1.76 -0.24,-0.6 -0.42,-1.19 -0.59,-1.8 -0.49,-1.69 -0.54,-3.23 -0.25,-4.76 0.29,-1.5 0.91,-2.97 1.8,-4.56 0.17,-0.3 0.36,-0.6 0.57,-0.89 1.67,-2.33 4.34,-3.91 7.37,-4.47 3,-0.56 6.35,-0.12 9.39,1.58 0.46,0.26 0.92,0.55 1.37,0.87 2.76,1.97 4.62,5.09 5.31,8.52 0.67,3.33 0.24,6.96 -1.53,10.12 -1.89,3.38 -4.6,5.67 -7.64,6.96 -2.96,1.24 -6.23,1.53 -9.36,0.94 -3.13,-0.59 -6.12,-2.07 -8.54,-4.36 -2.64,-2.5 -4.6,-5.96 -5.28,-10.29 -0.71,-4.49 0.48,-7.65 1.22,-9.64 0.3,-0.79 0.52,-1.37 0.47,-1.58 -0.03,-0.14 -0.07,-0.28 -0.15,-0.39 -0.07,-0.11 -0.18,-0.21 -0.34,-0.3 -0.22,-0.12 -0.41,-0.16 -0.56,-0.11 -0.19,0.05 -0.38,0.21 -0.58,0.45l-0.68 1.23c-0.36,0.85 -0.65,1.88 -0.86,2.88 -0.4,1.8 -0.56,3.44 -0.58,3.78 -0.23,4.81 1.05,8.93 3.27,12.18 1.72,2.52 4,4.52 6.58,5.93 2.57,1.41 5.44,2.22 8.33,2.36 3.68,0.18 7.4,-0.74 10.6,-2.92 1.67,-1.14 2.69,-1.98 3.53,-2.94z"/>
 </g>
</svg>
