<?xml version="1.0" encoding="UTF-8"?>
<!DOCTYPE svg PUBLIC "-//W3C//DTD SVG 1.1//EN" "http://www.w3.org/Graphics/SVG/1.1/DTD/svg11.dtd">
<!-- Creator: CorelDRAW 2020 (64-Bit) -->
<svg xmlns="http://www.w3.org/2000/svg" xml:space="preserve" width="512px" height="483px" version="1.1" style="shape-rendering:geometricPrecision; text-rendering:geometricPrecision; image-rendering:optimizeQuality; fill-rule:evenodd; clip-rule:evenodd"
viewBox="0 0 512 483.08"
 xmlns:xlink="http://www.w3.org/1999/xlink"
 xmlns:xodm="http://www.corel.com/coreldraw/odm/2003">
 <defs>
  <style type="text/css">
   <![CDATA[
    .fil0 {fill:#FEFEFE}
   ]]>
  </style>
 </defs>
 <g id="Слой_x0020_1">
  <metadata id="CorelCorpID_0Corel-Layer"/>
  <path class="fil0" d="M370.3 413.45l5.17 0c6.11,0 13.44,7.07 13.44,16.55 0,6.44 -6.56,14.48 -13.44,14.48 -9.45,0 -18.38,-2.73 -18.41,-15.52 -0.01,-6.78 6.24,-15.51 13.24,-15.51zm-171.71 31.03c-9.91,0 -18.61,-2.89 -18.61,-15.52 0,-20.92 30.16,-20.43 31.57,-0.77 0.51,7.05 -5.36,16.29 -12.96,16.29zm75.51 -175.84l63.1 0 0 22.76 -63.1 0 0 -22.76zm134.47 22.76l-27.93 0 0 -22.76 34.13 0c0,7.62 -4.56,15.7 -6.2,22.76zm-213.08 -22.76l35.17 0 0 22.76 -27.93 0c-0.77,-3.31 -2.51,-6.86 -3.76,-10.72 -1.22,-3.77 -2.16,-9.1 -3.48,-12.04zm78.61 -74.47l63.1 0 0 31.03 -63.1 0 0 -31.03zm-104.47 0l61.03 0 0 31.03 -48.62 0c-3.69,0 -3.12,-3.02 -4.04,-6.3 -2.31,-8.19 -7.55,-18.34 -8.37,-24.73zm260.66 31.03l-49.65 0 0 -31.03 58.96 0c-2.15,4.46 -8.85,25.4 -9.31,31.03zm-156.19 -99.3l63.1 0 0 24.83 -63.1 0 0 -24.83zm-128.26 0l84.82 0 0 24.83 -74.47 0c-3.76,0 -5.12,-8.64 -6.07,-11.52 -1.62,-4.89 -3.6,-8.02 -4.28,-13.31zm305.13 24.83l-70.33 0 0 -24.83 80.68 0c-1.05,4.51 -2.78,8.85 -4.27,13.32 -0.96,2.88 -2.33,11.51 -6.08,11.51zm-450.97 -129.3c0,7.57 3.31,13.88 9.32,17.58 7.28,4.48 46.3,18.21 58.92,23.82 1.48,0.66 8.85,3.26 9.65,3.8 2.68,1.78 0.75,-1 2.48,3.72l15.82 46.25c2.69,6.71 4.77,13.52 7.39,20.53 2.34,6.25 4.77,13.38 6.96,19.94l21.4 61.34c2.39,9.38 4.11,11.96 6.8,20.1l17.75 51.55c1.23,3.13 3.17,7.8 3.83,10.65 -1.72,2.56 -2.53,2.66 -4.41,4.89 -1.77,2.12 -2.08,3.31 -3.17,6.14l-15.04 42.88c-5.38,15.06 -18,36.43 2.21,46.14 3.73,1.8 4.08,1.31 9.04,1.31 -0.94,4.01 -2.62,5.03 -4.85,12.74 -7.26,25.04 5.34,51.12 27.91,62.46 3.2,1.6 6.12,2.56 9.75,3.7 32.56,10.25 67.52,-18.65 67.52,-47.87 0,-14.25 -0.16,-17.65 -7.24,-31.03l83.78 0c-2.78,11.95 -6.21,3.38 -6.21,33.1 0,14.46 9.31,25.29 16.8,32.85 16.66,16.82 46.26,19.68 65.09,6.63 10.8,-7.49 19.53,-17.04 22.82,-29.93 0.97,-3.83 2.35,-10.56 2.44,-14.85 0.19,-8.96 -3.44,-21.42 -6.82,-27.8 15.72,0 22.76,-5.26 22.76,-21.72 0,-6.64 -7.32,-15.5 -19.61,-15.56l-248.29 0.04 10.35 -29.99 241.94 -0.1c10.52,-1.22 15.12,-8.51 18.08,-17.08l8.3 -25.84c1.74,-4.6 3.17,-8.63 4.61,-12.97 1.71,-5.1 2.36,-7.96 3.9,-13.69l33.86 -104.73c2.29,-6.83 16.16,-49.48 16.16,-53.15 0,-21.36 -11.39,-24.85 -30,-24.82l-351.67 0 -6.08 -17.72c-13.15,-39.47 -9.41,-29.67 -67.21,-52.76 -14.99,-6 -45.4,-23.48 -55.44,-0.33 -0.91,2.1 -1.6,7.02 -1.6,9.78z"/>
 </g>
</svg>
