<?xml version="1.0" encoding="UTF-8"?>
<!DOCTYPE svg PUBLIC "-//W3C//DTD SVG 1.1//EN" "http://www.w3.org/Graphics/SVG/1.1/DTD/svg11.dtd">
<!-- Creator: CorelDRAW 2020 (64-Bit) -->
<svg xmlns="http://www.w3.org/2000/svg" xml:space="preserve" width="2499px" height="310px" version="1.1" style="shape-rendering:geometricPrecision; text-rendering:geometricPrecision; image-rendering:optimizeQuality; fill-rule:evenodd; clip-rule:evenodd"
viewBox="0 0 474.03 58.87"
 xmlns:xlink="http://www.w3.org/1999/xlink"
 xmlns:xodm="http://www.corel.com/coreldraw/odm/2003">
 <defs>
  <style type="text/css">
   <![CDATA[
    .fil0 {fill:#9E3220}
    .fil1 {fill:#FEFEFE;fill-rule:nonzero}
   ]]>
  </style>
 </defs>
 <g id="Слой_x0020_1">
  <metadata id="CorelCorpID_0Corel-Layer"/>
  <path class="fil0" d="M318.1 41.89c-3.33,5.93 -4.68,7.8 -10.52,11.79 -20.13,13.75 -52.02,-0.91 -50.59,-30.75 0.04,-0.94 0.75,-7.53 2.55,-11.76l1.24 -2.2c0.96,-1.25 2.14,-1.78 3.58,-0.98 0.93,0.52 1.29,1.23 1.45,2.02 0.45,2.2 -4.54,8.32 -2.85,19.01 4.17,26.45 37.5,32.86 49.75,10.99 5.76,-10.28 2.65,-23.66 -6.02,-29.87 -10.68,-7.63 -24.74,-4.47 -29.77,4.51 -2.89,5.15 -4.04,9.48 -2.52,14.79 0.58,2.02 1.17,3.87 2.43,5.63 7.29,10.06 21.13,8.28 25.43,0.6l0.97 -1.73c4.17,-7.44 -1.74,-18.88 -11.78,-16.84 -6.18,1.26 -9.76,9.7 -3,13.48 2.09,1.17 4.37,0.53 5.3,-2.71 -5.05,-2.83 -1.97,-5.84 -0.25,-6.05 4.34,-0.51 7.14,5.94 5.28,9.25 -2.01,3.58 -2.28,4.24 -6.72,5.43 -7.69,2.06 -17.13,-7.5 -10.85,-18.69 3.54,-6.33 13.37,-8.41 19.18,-5.16 3.6,2.01 5.01,2.84 7.38,6.66 6.54,10.55 -0.17,29.42 -19.63,28.28 -8.99,-0.53 -16.88,-7.79 -19.22,-16.12 -2.88,-10.2 1.86,-22.2 11.02,-27.61 19.75,-11.68 43.23,4.87 41.32,26.7 -0.28,3.2 -1.19,7.81 -3.16,11.33z"/>
  <path class="fil1" d="M198.42 55.9l-14.84 -52.98 10.98 0 10.14 39.28 11.05 -39.28 8.93 0 11.12 39.28 10.14 -39.28 10.98 0 -14.84 52.98 -11.88 0 -9.99 -34.96 -9.91 34.96 -11.88 0zm157.39 0l-10.67 -18.39 -7.94 0 0 18.39 -10.45 0 0 -52.98 21.19 0c4.9,0 9.06,1.72 12.49,5.15 3.43,3.43 5.14,7.57 5.14,12.41 0,3.28 -0.93,6.32 -2.8,9.12 -1.86,2.8 -4.33,4.91 -7.41,6.32l11.73 19.98 -11.28 0zm-18.61 -43.21l0 15.66 10.74 0c1.97,0 3.66,-0.77 5.07,-2.31 1.41,-1.53 2.12,-3.39 2.12,-5.56 0,-2.17 -0.71,-4.01 -2.12,-5.52 -1.41,-1.52 -3.1,-2.27 -5.07,-2.27l-10.74 0zm89.19 -9.77l0 52.98 -10.37 0 0 -34.36 -14.91 24.6 -1.21 0 -14.91 -24.52 0 34.28 -10.44 0 0 -52.98 10.75 0 15.21 25.05 15.13 -25.05 10.75 0zm28.42 54.04c-5.24,0 -9.66,-1.17 -13.24,-3.52 -3.58,-2.34 -6.11,-5.54 -7.57,-9.57l8.93 -5.22c2.07,5.39 6.13,8.09 12.18,8.09 2.93,0 5.08,-0.53 6.44,-1.59 1.36,-1.06 2.04,-2.39 2.04,-4.01 0,-1.86 -0.83,-3.32 -2.5,-4.35 -1.66,-1.03 -4.64,-2.13 -8.93,-3.37 -2.37,-0.68 -4.37,-1.41 -6.01,-2.12 -1.64,-0.7 -3.28,-1.65 -4.92,-2.83 -1.64,-1.19 -2.89,-2.69 -3.75,-4.51 -0.86,-1.81 -1.28,-3.93 -1.28,-6.35 0,-4.8 1.7,-8.62 5.1,-11.47 3.41,-2.85 7.51,-4.27 12.3,-4.27 4.29,0 8.06,1.04 11.32,3.14 3.25,2.09 5.78,5 7.6,8.74l-8.78 5.07c-2.12,-4.54 -5.5,-6.81 -10.14,-6.81 -2.17,0 -3.87,0.49 -5.11,1.47 -1.23,0.99 -1.85,2.26 -1.85,3.82 0,1.67 0.69,3.02 2.08,4.05 1.39,1.04 4.05,2.16 7.98,3.37 1.62,0.5 2.84,0.9 3.67,1.17 0.84,0.28 1.97,0.71 3.41,1.29 1.44,0.58 2.55,1.12 3.33,1.63 0.78,0.5 1.68,1.18 2.69,2.04 1.01,0.86 1.78,1.74 2.3,2.65 0.53,0.91 0.99,2.01 1.37,3.29 0.37,1.29 0.56,2.69 0.56,4.2 0,4.9 -1.77,8.78 -5.33,11.66 -3.56,2.87 -8.19,4.31 -13.89,4.31z"/>
  <path class="fil1" d="M10.44 45.91l22.33 0 0 9.99 -32.77 0 0 -52.98 32.39 0 0 9.99 -21.95 0 0 11.28 20.06 0 0 9.84 -20.06 0 0 11.88zm54.42 11.05c-7.97,0 -14.56,-2.65 -19.76,-7.95 -5.19,-5.29 -7.79,-11.83 -7.79,-19.6 0,-7.82 2.6,-14.36 7.79,-19.64 5.2,-5.27 11.79,-7.9 19.76,-7.9 4.79,0 9.22,1.12 13.28,3.36 4.06,2.25 7.23,5.29 9.5,9.12l-9.01 5.22c-1.31,-2.37 -3.18,-4.22 -5.6,-5.56 -2.42,-1.34 -5.15,-2 -8.17,-2 -5.15,0 -9.3,1.61 -12.45,4.84 -3.16,3.23 -4.73,7.42 -4.73,12.56 0,5.1 1.57,9.26 4.73,12.49 3.15,3.23 7.3,4.84 12.45,4.84 3.02,0 5.76,-0.67 8.21,-2 2.44,-1.34 4.3,-3.17 5.56,-5.49l9.01 5.22c-2.27,3.84 -5.43,6.88 -9.46,9.12 -4.04,2.25 -8.48,3.37 -13.32,3.37zm73.25 -7.98c-5.34,5.32 -11.85,7.98 -19.52,7.98 -7.67,0 -14.17,-2.66 -19.49,-7.98 -5.32,-5.33 -7.98,-11.85 -7.98,-19.57 0,-7.72 2.66,-14.24 7.98,-19.56 5.32,-5.32 11.82,-7.98 19.49,-7.98 7.67,0 14.18,2.66 19.52,7.98 5.35,5.32 8.03,11.84 8.03,19.56 0,7.72 -2.68,14.24 -8.03,19.57zm-31.71 -7.12c3.28,3.26 7.35,4.88 12.19,4.88 4.84,0 8.9,-1.62 12.18,-4.88 3.28,-3.25 4.92,-7.4 4.92,-12.45 0,-5.04 -1.64,-9.21 -4.92,-12.48 -3.28,-3.28 -7.34,-4.92 -12.18,-4.92 -4.84,0 -8.91,1.64 -12.19,4.92 -3.28,3.27 -4.92,7.44 -4.92,12.48 0,5.05 1.64,9.2 4.92,12.45z"/>
  <polygon class="fil1" points="154.32,34.03 154.32,24.19 182.7,24.19 182.7,34.03 "/>
 </g>
</svg>
