<?xml version="1.0" encoding="UTF-8"?>
<!DOCTYPE svg PUBLIC "-//W3C//DTD SVG 1.1//EN" "http://www.w3.org/Graphics/SVG/1.1/DTD/svg11.dtd">
<!-- Creator: CorelDRAW 2020 (64-Bit) -->
<svg xmlns="http://www.w3.org/2000/svg" xml:space="preserve" width="974px" height="809px" version="1.1" style="shape-rendering:geometricPrecision; text-rendering:geometricPrecision; image-rendering:optimizeQuality; fill-rule:evenodd; clip-rule:evenodd"
viewBox="0 0 71.64 59.47"
 xmlns:xlink="http://www.w3.org/1999/xlink"
 xmlns:xodm="http://www.corel.com/coreldraw/odm/2003">
 <defs>
  <style type="text/css">
   <![CDATA[
    .fil0 {fill:#FEFEFE}
   ]]>
  </style>
 </defs>
 <g id="Слой_x0020_1">
  <metadata id="CorelCorpID_0Corel-Layer"/>
  <g id="_2858774044128">
   <path class="fil0" d="M21.26 53.94c0,4.86 -0.86,2.59 -3.54,1.97 0.6,-0.9 2.06,-1.94 3.54,-1.97zm-5.71 0c-0.57,-0.86 -0.88,-1.42 -1.38,-2.36 1.08,-0.72 2.69,-2.88 5.91,-2.95 0.28,0.58 0.72,1.97 0.79,2.75 -1.21,0.03 -2.15,0.53 -2.95,0.99 -0.7,0.41 -1.66,1.38 -2.37,1.57zm36.62 -0.98c-2.17,-0.51 -3.04,-1.17 -3.94,-1.38l0 -0.4c1.05,-0.28 2.33,-2.34 2.56,-3.34 0.88,0.2 1.51,0.7 2.56,0.79 0,0.79 -0.21,1.73 -0.39,2.36 -0.29,1.05 -0.61,1.31 -0.79,1.97zm3.94 -6.11c0.95,-0.08 1.23,-0.39 2.36,-0.39 0.46,1.96 1.57,3.38 1.57,6.3 -1.99,0.17 -0.83,0.59 -5.11,0.59 0.31,-1.34 0.98,-2.67 0.98,-4.33 1.19,0 1.64,0.33 1.7,-0.4 0.07,-0.78 -0.72,-0.58 -1.5,-0.58l0 -1.19zm-4.73 -0.98c2.02,0.97 2.14,0.15 2.17,1.57 -1.82,-0.04 -2.17,-0.54 -2.17,-1.57zm-9.45 0.59c0.74,-0.36 1.27,-0.47 2.01,-0.94 0.64,-0.4 1.12,-0.82 1.73,-1.23 0.68,0.46 0.82,0.56 1.43,1.14 0.39,0.37 1,0.89 1.53,1.03 -0.3,1.26 -1.72,3.06 -2.96,3.35 -0.91,-0.61 -3.16,-2.48 -3.74,-3.35zm18.7 -1.38c0.54,-0.79 0.93,-0.67 1.19,-1.77 1.94,0.04 4.55,2.9 5.51,4.33 -0.61,0.91 -1.17,1.58 -2.03,2.31 -0.58,0.49 -1.93,1.45 -2.7,1.63 -0.09,-1.13 -0.47,-2.45 -0.76,-3.37 -0.18,-0.6 -0.39,-1.1 -0.58,-1.58l-0.63 -1.55zm-14.17 -1.77l0.76 -0.62c0.81,0.56 0.81,0.89 1.8,1.41l0 1.38c-0.6,-0.41 -2.19,-1.62 -2.56,-2.17zm-29.73 -0.39c0.96,0.08 0.9,0.59 1.32,1.44 0.33,0.69 0.68,1.16 0.85,1.9 -1.68,-0.39 -1.06,-0.19 -1.6,0.17 -1.06,0.71 -2.17,0.96 -3.16,1.77 -0.54,0.45 -0.43,0.63 -1.15,0.82 -1.44,-2.73 -2.15,-3.43 0.53,-4.99 0.71,-0.42 1.34,-0.59 2.03,-0.92 1.4,2.65 0.99,2.37 2.17,2.37 -0.02,-1 -0.61,-1.85 -0.99,-2.56zm20.67 -2.76c1.28,-0.11 3.34,-1.25 4.34,-1.77 0.21,0.91 1.81,3.12 2.36,3.94 -0.73,0.19 -0.34,0.12 -0.85,0.52 -0.84,0.65 -2.16,1.35 -3.29,1.44 -0.15,-0.56 -0.9,-1.45 -1.3,-2.04 -0.47,-0.71 -0.88,-1.38 -1.26,-2.09zm-28.94 -0.39c0.34,-0.23 2.42,-2.37 3.75,-2.37 0.73,0 1.92,3.05 1.96,3.55 -1.61,0.13 -2.84,1.63 -3.93,2.36l-1.78 -3.54zm54.54 -1.78c6.97,0 5.9,0.91 5.9,4.53 0,1.28 0,1.93 -0.59,2.37 -0.23,-0.89 -1.7,-1.92 -2.44,-2.48 -0.71,-0.54 -2.28,-1.58 -3.27,-1.66 0,-0.61 0.01,-1.18 -0.03,-1.78 -0.05,-0.68 -0.29,-0.98 0.43,-0.98zm-20.28 -0.39c0.44,-0.6 -0.13,-0.32 0.79,-0.39 0.57,2.15 2.97,2.96 1.38,4.13 -0.5,-0.36 -1.98,-2.7 -2.16,-3.34l-0.01 -0.4zm-28.94 -0.39c0.91,0.02 0.57,-0.29 1.38,1.37 0.35,0.72 0.9,1.31 0.59,1.97 -0.63,-0.22 -0.29,-0.08 -1.1,-1.45 -0.41,-0.69 -0.53,-1.24 -0.87,-1.89zm-7.87 -3.35c1,-1.5 3.46,-2.04 4.13,-2.36l1.38 3.54c-1.78,0.15 -3.02,1.57 -4.14,2.17l-1.37 -3.35zm28.54 -0.2c0.67,-0.32 2.6,-0.42 4.69,-1.8 0.52,-0.34 0.75,-0.64 1.22,-0.95 0.37,0.71 0.63,1.45 0.98,2.16 0.45,0.9 0.98,1.51 0,2.17 -0.06,-0.79 -0.08,-0.64 -0.59,-0.99 -0.96,0.65 -0.42,0.81 -0.2,1.78 -0.74,0.5 -3,1.77 -4.13,1.77 -0.54,0 -1.68,-3.49 -1.97,-4.14zm-23.23 -2.36l0.59 0c0.17,0.73 1.04,2.7 1.38,3.35 -1.29,-0.11 -1.43,-2.13 -1.97,-3.35zm54.53 0l0.99 0c0.05,0.64 0.48,1.54 0.71,2.24 0.28,0.85 0.47,1.43 0.67,2.29 -0.76,-0.02 -0.67,0 -1.11,-0.47 -0.1,-0.09 -0.25,-0.3 -0.27,-0.32 -0.78,0.21 -0.24,0.24 -1.01,0.37l-4.11 0.22c-0.09,-1.04 -0.77,-1.81 -0.99,-2.75 0.91,-0.48 2.82,-1.38 4.14,-1.38 0.43,1.85 0.53,2.86 1.57,2.95 0.55,-0.66 -0.33,-2.66 -0.59,-3.15zm-7.67 -3.15c0.91,-1.37 2.44,-1.96 3.93,-2.75 0.29,1.23 1.29,2.31 1.58,3.54l-4.33 1.57 -1.18 -2.36zm-26.19 -0.98c1.27,-0.61 2.37,-0.43 4.82,-2.28 0.57,-0.43 0.78,-0.73 1.28,-1.07 0.1,1.12 1.2,3.54 1.25,4.04 0.05,0.52 0.18,0.01 -0.16,0.58 -0.78,1.35 -3.69,2.66 -5.81,2.66l-1.38 -3.93zm-22.83 1.97c-0.81,0.18 -1.6,0.47 -2.31,0.84 -0.78,0.43 -1.16,0.92 -2.03,1.12 -0.08,-0.95 -0.74,-2.52 -0.98,-3.54 1.12,-0.54 4.39,-1.18 6.1,-1.18 0.42,0 0.99,2.08 0.79,2.56 -1.01,-0.37 -0.09,-0.65 -1.18,-1.38 -0.91,0.61 -0.42,0.42 -0.39,1.58zm54.13 -3.94c0.87,0.07 0.55,-0.12 1.38,1.57 0.32,0.65 0.65,1.33 0.99,1.97 -1.3,-0.03 -0.82,-0.28 -1.91,-2.42 -0.25,-0.49 -0.27,-0.71 -0.46,-1.12zm-33.66 -4.14c1.54,-0.81 3.96,-2.16 5.14,-3.52 0.39,-0.45 0.07,-0.42 0.77,-0.61 0.83,3.58 2.94,3.96 -0.92,6.37 -4.13,2.57 -3.81,0.77 -4.26,-0.41 -0.28,-0.72 -0.4,-1.21 -0.73,-1.83zm-26.97 -0.98l4.53 -0.2c1.09,0 1.16,0.2 2.16,0.2l0.2 3.74c-2.49,0 -4.33,0.72 -6.3,1.18 -0.12,-1.43 -0.59,-3.37 -0.59,-4.92zm57.09 1.18c0,0.4 0.81,1.33 0.98,1.97 -1.38,0.32 -3.09,1.86 -4.13,2.56 -1.62,-3.06 -1.64,-3.13 -0.37,-4.11 2.37,-1.84 1.71,-1.23 4.11,-2.39 0.75,1.12 1.82,2.04 2.17,3.55 -0.87,-0.02 -0.53,0.29 -1.44,-1.33 -0.72,-1.31 -1.32,-0.87 -1.32,-0.25zm-5.32 -1.57c0,-4.37 1.43,-2.81 3.35,-2.37l0 0.4c-1.24,0.29 -2.38,1.32 -3.35,1.97zm-25.78 -1.18c-0.23,-0.97 -0.95,-2.54 -1.38,-3.35 0.52,-0.78 3.39,-3.17 3.93,-5.51 0.71,0.18 1.54,1.76 1.91,2.43 0.89,1.65 1.37,1.62 0.55,2.77 -0.95,1.34 -3.28,3.25 -5.01,3.66zm-23.83 -3.94c0.73,-0.49 0.77,-0.99 1.19,-1.77 0.69,0.46 1.26,0.9 1.94,1.4 0.73,0.54 1.15,1.11 1.8,1.55 -0.04,0.49 -0.23,1.42 -0.4,1.77 -5.68,-0.47 -0.67,-0.48 -6.49,0 0,-1.31 0.64,-3.21 1.17,-4.34 0.33,-0.73 0.22,-0.89 0.99,-0.97 -0.31,1.32 -1.34,1.59 -0.2,2.36zm2.76 -3.94l2.71 -2.8c0.72,0.54 1.98,2.78 2.21,3.79 -0.17,0.22 -1.5,1.39 -1.77,1.57l-3.15 -2.56zm18.31 2.17c-0.94,-0.64 0.02,-0.38 -1.77,-1.58 0.74,-1.54 0.98,-4.89 0.98,-7.28 0.76,0.51 1.51,0.87 2.28,1.46 0.71,0.53 1.42,1.27 2.05,1.69 -0.3,1.3 -0.74,2.19 -1.37,3.15 -0.51,0.76 -1.45,2.07 -2.17,2.56zm-16.54 -5.52l-2.72 2.64c-1.91,0.87 1.64,-3.12 2.29,-3.31 0.54,-0.16 0.81,0.23 0.43,0.67zm3.15 -0.98c0.94,-0.49 2.72,-1.47 3.94,-1.58 0.34,1.45 0.59,3.01 0.59,4.73 0,0.65 -0.63,0.63 -2.17,0.98 -1.5,-3.13 -0.67,-1.61 -2.36,-4.13zm-0.78 -0.79c-0.32,-0.47 -0.24,-0.2 -0.4,-0.79 0.64,-0.17 1.64,-0.87 2.39,-1.15 1.83,-0.7 1.93,-0.86 2.53,-0.22 -0.59,0.81 -2.17,0.59 -4.52,2.16zm6.89 -2.95c3.36,0 2.11,0.24 3.93,0.39 0,0.99 -0.09,6.31 -0.75,6.88 -0.35,0.31 -0.91,-0.18 -2.2,-0.18 0,-2.13 -0.14,-3.37 -0.59,-5.32 1.94,-0.04 1.91,-0.34 1.97,-0.98 -0.71,-0.34 -0.53,-0.13 -1.39,-0.19 -1.29,-0.08 -0.6,0.12 -0.97,-0.6zm-18.51 16.54c0,10.11 5.26,20.04 9.45,28.54 0.41,0.85 0.82,1.59 1.25,2.49l1.22 2.72c1.58,3.83 7.97,8.93 10.97,5.48 1.69,-1.94 0.77,-7.08 0.12,-9.09 -0.91,-2.86 -2.32,-5.32 -3.59,-7.83 -0.68,-1.33 -1.26,-2.53 -1.9,-3.81 -2.4,-4.79 -7.5,-15.15 -5.23,-21.77 0.17,-0.51 0.34,-0.76 0.64,-1.13 0.39,-0.49 0.41,-0.49 0.9,-0.87 1.29,-1 3.24,-1.62 5.46,-1.62 4.37,0 5.86,4.35 7.07,7.7 1.89,5.25 4.91,13.1 6.92,17.69 2.61,5.97 7.58,13.03 13.51,16.02 4.32,2.18 5.54,2.29 10.1,2.29 4.14,0 9.2,-2.6 11.97,-5.95 0.69,-0.84 0.94,-1.33 1.42,-2.32 3.59,-7.26 -0.78,-16.71 -3.67,-22.51 -1.83,-3.66 -3.24,-7.06 -6.76,-9.38 -7.06,-4.67 -10.07,1.52 -6.7,9.05 1.49,3.33 10.36,15.5 5.52,18.51 -6.21,3.86 -11.18,-4.28 -13.6,-8.46 -3.52,-6.08 -5.3,-15.22 -8.39,-21.33 -0.6,-1.2 -1.03,-2.1 -1.7,-3.22 -0.71,-1.19 -1.31,-2 -2.1,-3.02 -2.73,-3.49 -7.85,-7.28 -12.8,-7.28 -4.04,0 -5.74,0.09 -9.34,2.08 -1.12,0.62 -1.76,1.02 -2.76,1.77 -0.57,0.43 -0.78,0.68 -1.29,1.07 -0.47,0.36 -0.82,0.67 -1.21,1.15 -0.42,0.54 -0.55,0.67 -1,1.17 -2.42,2.68 -4.48,7.83 -4.48,11.86z"/>
   <path class="fil0" d="M3.54 15.55c0,0.65 0.7,1.02 1.38,0 -0.68,-1.01 -1.38,-0.64 -1.38,0z"/>
   <path class="fil0" d="M39.57 33.27c0,0.53 0.28,0.58 0.59,0.79 1.69,-1.13 -0.59,-1.58 -0.59,-0.79z"/>
  </g>
 </g>
</svg>
